# xmcd
#
# Track frame offsets: 
#        150
#        26485
#        51472
#        64752
#        95375
#        116462
#        139677
#        167350
#        187385
#        207922
#        220932
#        249415
#
# Disc length: 3866 seconds
#
# Revision: 3
# Processed by: cddbd v1.4PL0 Copyright (c) Steve Scherf et al.
# Submitted via: ExactAudioCopy v0.95a3
#
DISCID=ad0f180c
DTITLE=Vanessa-Mae - * Subject to Change
DYEAR=2001
DGENRE=New Age
TTITLE0=Yantra
TTITLE1=White Bird
TTITLE2=Picante
TTITLE3=Destiny
TTITLE4=Night Flight
TTITLE5=Clear Like Ice
TTITLE6=Laughing Buddha
TTITLE7=Pasha
TTITLE8=Solace
TTITLE9=Love Is Only a Game
TTITLE10=Deep South
TTITLE11=Jamais
EXTD=
EXTT0=
EXTT1=
EXTT2=
EXTT3=
EXTT4=
EXTT5=
EXTT6=
EXTT7=
EXTT8=
EXTT9=
EXTT10=
EXTT11=
PLAYORDER=
